<svg id="Description-icon" xmlns="http://www.w3.org/2000/svg" viewBox="0 0 1000 1000"><defs><style>.cls-1{fill:#e32235;}</style></defs><title>Description-icon</title><path d="M196.89,977.58H590.38c5.28-3.59,11.29-6.46,15.73-10.9Q715.84,857.11,825.24,747.22a32.84,32.84,0,0,0,10.18-24.87c-.26-39.67-.07-79.35-.08-119q0-231.06-.19-462.12C835,89,798.44,42.56,748.3,29c-5.6-1.52-11.24-2.87-16.86-4.3H196.89c-12.28,3.92-25.37,6.24-36.69,12.05-47.1,24.16-67.82,63.68-67.62,116.48.6,158.15.24,316.3.26,474.45,0,78.45-.59,156.91.32,235.35.6,51.48,36.52,96.12,85.91,110.07C185,974.71,191,976.08,196.89,977.58Zm356.6-59.79c-2.75.21-4,.39-5.2.39q-168.37,0-336.76-.08C177.4,918,152,891.44,152,856.46q-.09-354.91,0-709.81c0-37.12,25.25-62.47,62.29-62.53q133.13-.2,266.25-.09,117.82,0,235.64.06c33.25.08,60,26.11,60,58.31q.09,272.12-.08,544.22c0,2.64-.35,5.28-.55,8.24h-12q-88.59,0-177.19,0c-21.34,0-32.93,12-32.92,33.65q.06,67.46,0,134.89ZM613.4,873V754.65H731.09Z"/><path class="cls-1" d="M464.14,523.59q-87.64,0-175.28,0c-14.58,0-25.2,8-29.29,21.2-3.68,11.86.11,25.33,10.82,31.94a40,40,0,0,0,19.87,5.8c97.69.36,195.38.25,293.07.25q26.43,0,52.86,0c20.57,0,33.93-11.8,33.81-29.81-.12-17.59-13.41-29.36-33.36-29.37q-86.25,0-172.5,0Z"/><path class="cls-1" d="M465.1,461.85H637.61c18.92,0,32.28-12.1,32.39-29.39.1-17.46-13-29.79-32-29.8q-174.36-.07-348.72,0c-17.95,0-31.08,12.77-31,29.89.11,16.72,13,29.26,30.56,29.29Q377,462,465.1,461.85Z"/><path class="cls-1" d="M465.14,324.12q56.57,0,113.12,0c19.06,0,32.37-12.19,32.35-29.4,0-17.45-13.05-29.77-32-29.79q-114.53-.14-229,0c-18.9,0-31.9,12.46-31.82,30,.08,17.29,13.26,29.22,32.44,29.23Q407.64,324.17,465.14,324.12Z"/></svg>