<svg xmlns="http://www.w3.org/2000/svg" viewBox="0 0 963.43 888.71"><defs><style>.cls-1{fill:none;stroke-width:34.06px;}.cls-1,.cls-2{stroke:#231f20;stroke-miterlimit:10;}.cls-2{fill:#e32235;stroke-width:0.97px;}</style></defs><title>Asset 5</title><g id="Layer_2" data-name="Layer 2"><g id="FAQ"><path class="cls-1" d="M229.72,639.2c-30.22,0-59.2.22-88.18-.08-17.59-.18-35.48.74-52.68-2.13C46.93,630,17,592.89,17,550.41q0-222,.06-444.07c0-49.54,39.38-89.26,88.61-89.27q374.49-.08,749,0c53.24,0,91.64,38.31,91.67,91.39q.1,220.49,0,441c0,50.28-39.09,89.64-89.28,89.7q-164.42.23-328.84-.14c-9.32,0-16,2.41-22.72,9q-107.73,105.75-216,210.92c-9.77,9.55-20.61,15.17-34.5,11.71-16.31-4.06-25.38-16.83-25.39-35.72q0-86.11.09-172.23C229.72,655.17,229.72,647.64,229.72,639.2Z"/><path class="cls-2" d="M756.17,407.55c6.44,6.15,12.46,11.34,17.83,17.13,13.64,14.72,9.36,34.26-9,42.37s-37.27,4.93-51-10.2c-9.31-10.28-18.16-14.58-33.4-13.49-73.92,5.3-123.92-43-124.16-117.19-.07-22.14,3.76-43.29,13.82-63.08,23.53-46.25,73.94-69.38,127.77-58.8,48,9.44,82.65,50.51,86.76,101.92C787.71,343,781.14,377,756.17,407.55ZM720.5,326.19c-2.29-12.71-3.18-23.85-6.41-34.27-6.37-20.62-19.75-30.7-40.14-31.5-20-.78-34.94,7.89-43.21,26.15-11.3,25-11.24,50.42.58,75.16,8,16.81,22.23,25.15,41,24.54,18.6-.6,32.93-8.89,39.68-26.5C716.28,348.69,718,336.63,720.5,326.19Z"/><path class="cls-2" d="M429.86,205.87c4.49,0,9,0,13.48,0,12.86.07,21.8,6.1,26.15,18.14q32.7,90.53,65,181.18c5.35,15.1-2.83,29.75-18.16,34.22-17.69,5.14-41.51-.67-47.45-24.25-6.28-24.93-7.6-24.58-33.9-24.42-9.68.05-19.41.6-29-.18-8.25-.67-11.83,2.74-13.58,10.26-1.48,6.36-4.4,12.39-5.84,18.76-5.48,24.24-44.68,27.69-58.3,11.7-6.67-7.81-8.37-16.69-4.93-26.14q33-90.94,66.46-181.76c4.26-11.58,13.06-17.45,25.53-17.47h14.52Zm14.28,130.46-15-45.64-2.24.17c-4.82,14.84-9.64,29.68-14.78,45.47Z"/><path class="cls-2" d="M242.81,262.82v36.49c13.84,0,27.21-.07,40.58,0,18.69.11,30,10.84,29.92,28.17C313.2,344.34,302,354.86,283.9,355c-13.4.08-26.8,0-41.54,0,0,18.12.17,35.27,0,52.42-.26,21.23-13,33.52-33.87,33-18-.46-30.32-11.54-30.46-29.8q-.7-89.16,0-178.33c.11-16.06,11.43-26.23,27.36-26.31q42.49-.22,85,0c17.91.09,29.17,11.05,29.14,27.89s-11.22,27.59-29.21,27.74c-14.85.12-29.71.13-44.57.23C245.08,261.81,244.46,262.23,242.81,262.82Z"/></g></g></svg>