<svg xmlns="http://www.w3.org/2000/svg" viewBox="0 0 1000 1000"><defs><style>.cls-1{fill:#010101;}.cls-2{fill:#e32235;}</style></defs><title>Hot-Features-icon</title><g id="Hot-Features-icon"><g id="surface1"><path class="cls-1" d="M78.35,829.47h32.43V797H78.35A32.44,32.44,0,0,1,45.91,764.6V115.91A32.44,32.44,0,0,1,78.35,83.47H791.91a32.44,32.44,0,0,1,32.44,32.44v32.43h32.43V115.91A64.87,64.87,0,0,0,791.91,51H78.35a64.87,64.87,0,0,0-64.87,64.87V764.6A64.87,64.87,0,0,0,78.35,829.47Z"/><path class="cls-1" d="M78.35,115.91h32.43v32.43H78.35Z"/><path class="cls-1" d="M143.22,115.91h32.43v32.43H143.22Z"/><path class="cls-1" d="M208.09,115.91h32.43v32.43H208.09Z"/><path class="cls-1" d="M143.22,894.34a64.87,64.87,0,0,0,64.87,64.87H921.65a64.87,64.87,0,0,0,64.87-64.87V245.65a64.87,64.87,0,0,0-64.87-64.87H208.09a64.87,64.87,0,0,0-64.87,64.87Zm32.43-648.69a32.44,32.44,0,0,1,32.44-32.44H921.65a32.44,32.44,0,0,1,32.44,32.44V894.34a32.44,32.44,0,0,1-32.44,32.44H208.09a32.44,32.44,0,0,1-32.44-32.44Z"/><path class="cls-1" d="M208.09,245.65h32.43v32.43H208.09Z"/><path class="cls-1" d="M273,245.65h32.43v32.43H273Z"/><path class="cls-1" d="M337.83,245.65h32.43v32.43H337.83Z"/><path class="cls-1" d="M208.09,310.52H921.65V343H208.09Z"/><path class="cls-1" d="M208.09,391.6H337.83V424H208.09Z"/><path class="cls-1" d="M208.09,456.47h97.3v32.44h-97.3Z"/><path class="cls-2" d="M564.87,521.34A113.53,113.53,0,1,0,678.39,634.86,113.51,113.51,0,0,0,564.87,521.34Zm0,194.61A81.09,81.09,0,1,1,646,634.86,81.09,81.09,0,0,1,564.87,716Z"/><path class="cls-2" d="M824.35,586.21A16.21,16.21,0,0,0,808.13,570H765.27a206.88,206.88,0,0,0-12.83-31l30.31-30.29a16.25,16.25,0,0,0,0-22.94L713.94,417A16.25,16.25,0,0,0,691,417l-30.29,30.3a209.05,209.05,0,0,0-31-12.81V391.6a16.21,16.21,0,0,0-16.22-16.21h-97.3A16.21,16.21,0,0,0,500,391.6v42.87a209.17,209.17,0,0,0-31,12.81L438.73,417a16.24,16.24,0,0,0-22.93,0L347,485.79a16.23,16.23,0,0,0,0,22.94L377.28,539c-1.35,2.66-2.66,5.32-3.89,8a209.77,209.77,0,0,0-8.92,23H321.61a16.21,16.21,0,0,0-16.22,16.21v97.31a16.21,16.21,0,0,0,16.22,16.21h42.86a206.88,206.88,0,0,0,12.83,31L347,761a16.22,16.22,0,0,0,0,22.93l68.81,68.82a16.24,16.24,0,0,0,22.93,0L469,822.45a210.25,210.25,0,0,0,31,12.81v42.87a16.21,16.21,0,0,0,16.22,16.21h97.3a16.21,16.21,0,0,0,16.22-16.21V835.26a210.13,210.13,0,0,0,31-12.81L691,852.75a16.25,16.25,0,0,0,22.94,0l68.81-68.82a16.24,16.24,0,0,0,0-22.93l-30.31-30.29a206.88,206.88,0,0,0,12.83-31h42.86a16.21,16.21,0,0,0,16.22-16.21ZM791.91,667.3H753.09a16.22,16.22,0,0,0-15.7,12.16,177.35,177.35,0,0,1-19,45.87,16.22,16.22,0,0,0,2.49,19.7l27.42,27.44-45.86,45.88L675,790.91a16.22,16.22,0,0,0-19.71-2.5,177,177,0,0,1-45.85,19,16.21,16.21,0,0,0-12.17,15.69v38.83H532.43V823.08a16.2,16.2,0,0,0-12.16-15.69,177,177,0,0,1-45.85-19,16.24,16.24,0,0,0-19.72,2.5l-27.43,27.44-45.86-45.88L408.83,745a16.22,16.22,0,0,0,2.49-19.7,177.35,177.35,0,0,1-19-45.87,16.22,16.22,0,0,0-15.7-12.16H337.83V602.43h38.82a16.22,16.22,0,0,0,15.7-12.16,176.88,176.88,0,0,1,10.54-29.73,180.32,180.32,0,0,1,8.43-16.21,16.23,16.23,0,0,0-2.49-19.69L381.41,497.2l45.86-45.88,27.43,27.44a16.22,16.22,0,0,0,19.72,2.49,177,177,0,0,1,45.85-19,16.21,16.21,0,0,0,12.16-15.69V407.82H597.3v38.83a16.21,16.21,0,0,0,12.17,15.69,177,177,0,0,1,45.85,19,16.22,16.22,0,0,0,19.71-2.5l27.44-27.44,45.86,45.88L720.91,524.7a16.22,16.22,0,0,0-2.49,19.7,177.35,177.35,0,0,1,19,45.87,16.22,16.22,0,0,0,15.7,12.16h38.82Z"/><path class="cls-1" d="M824.35,861.91h97.3v32.43h-97.3Z"/></g></g></svg>