<svg xmlns="http://www.w3.org/2000/svg" viewBox="0 0 1000 1000"><defs><style>.cls-1{fill:none;stroke:#e32235;stroke-miterlimit:10;stroke-width:50px;}.cls-2{fill:#231f20;}</style></defs><title>Screenshot-icon</title><g id="ScreenShot-icon"><path d="M990.24,16.26V440.89H922.75V159.69H81.31V928.27h356.8v68H9.18v-980ZM109.58,49.51C91,50.27,79.07,60.81,79.14,82.13c.07,19.68,11.1,31.64,30.52,32.52,20.66.94,32.89-10.69,34.58-31.39C145.76,64.59,131.07,49.89,109.58,49.51ZM250.22,77.79c-2.38-17.12-13.5-28.88-34.5-28.21-19.91.64-30.42,12.2-30.94,32.05-.51,19.13,14,33.59,32.84,33.38S250.76,99.89,250.22,77.79Zm71.25-28.38c-18.9.82-30.83,11.46-30.72,32.79.1,19.69,11.15,31,30.66,32.67,18.63,1.59,34-13,34.72-31.67C356.81,64.35,342.73,49.73,321.47,49.41Z"/><circle class="cls-1" cx="718.46" cy="724.42" r="189.5"/><rect class="cls-2" x="887.81" y="659.88" width="40.3" height="152.59" transform="translate(1644.13 -171.78) rotate(90)"/><rect class="cls-2" x="505.81" y="659.88" width="40.3" height="152.59" transform="translate(1262.13 210.22) rotate(90)"/><rect class="cls-2" x="698.31" y="835.74" width="40.3" height="152.59" transform="translate(1436.92 1824.06) rotate(180)"/><rect class="cls-2" x="698.31" y="458.63" width="40.3" height="152.59" transform="translate(1436.92 1069.85) rotate(180)"/></g></svg>