<svg xmlns="http://www.w3.org/2000/svg" viewBox="0 0 1000 1000"><defs><style>.cls-1{fill:#e32235;}</style></defs><title>WorkFlow-icon</title><g id="Workflow-icon"><path class="cls-1" d="M185.58,835.55c-6.66-8-12.25-14.63-17.74-21.34-12.15-14.8-11.4-35.26,1.64-46.39,13.21-11.27,33.07-8.79,46,5.75,20.29,22.82,40.3,45.9,61,68.39,14.13,15.38,12.81,37.2.28,52.3-19.91,24-41.08,47-62.09,70C201,979.17,183.4,979.54,168,966.06c-12.48-10.91-13-29.17-1.23-43.71,5.87-7.23,11.84-14.35,19.2-23.26H47c-21.81,0-35.48-13.3-35.49-35q-.11-176.45,0-352.89c0-21.49,13.33-35,34.42-35q103.82-.07,207.64,0c15.14,0,27.71,9.17,31.82,22.63,3.86,12.64-1.28,27.82-13.4,34.64a43.43,43.43,0,0,1-20.25,5.12c-55.56.42-111.13.27-166.69.3H75.37V835.55Z"/><path class="cls-1" d="M815.41,538.92c7.52,9.13,13.56,16.27,19.38,23.59,11.43,14.39,9.9,33.81-3.45,45.49-13.56,11.87-31.31,10.87-44.27-3.35q-32.49-35.67-64.21-72c-10.9-12.44-10.36-34,.68-46.49q32.33-36.5,64.75-72.89c12-13.47,28.86-14.79,43.47-3.35,13.28,10.4,15.6,28.37,5,42.56-6.15,8.25-13,16-20.5,25.06H926.52V181.34H880.28c-44.2,0-88.41.1-132.61-.07-15.93-.06-29.06-10.59-32.06-24.89a31.25,31.25,0,0,1,18.4-35,37.4,37.4,0,0,1,14.16-2.72q103.85-.23,207.69,0C978.07,118.67,990,131,990,153.26q.06,174.54,0,349.09c0,23.7-12.28,36.34-35.73,36.45-42.57.18-85.15.1-127.73.12Z"/><path d="M502,372.45q68.73,0,137.44,0c22.86,0,34.36,11.11,34.41,33.93q.23,102.35,0,204.71c0,20.3-14.13,34.26-34.43,34.28q-137,.07-273.92,0c-25.6,0-37.91-12.88-37.88-38.66.06-65.64.44-131.28-.22-196.91-.21-20.47,13.09-38.19,37.12-37.64C410.32,373.2,456.16,372.45,502,372.45ZM609.86,581.61V435.8H391.69V581.61Z"/><path d="M499.79,285q-68.7,0-137.4,0c-21.42,0-34.65-13.09-34.69-34.49q-.15-101.36,0-202.7c0-22.39,13.43-35.62,35.91-35.63q137.42-.08,274.82,0c23,0,35.38,12.4,35.41,35.68q.12,100.86,0,201.72c0,22.8-12.81,35.41-35.67,35.43Q569,285,499.79,285ZM610.18,76H391.5V222H610.18Z"/><path d="M500.74,717.83q69.19,0,138.37,0c22.7,0,34.69,12,34.73,35q.13,101.34,0,202.69c0,21.83-13.5,35.15-35.37,35.16q-137.4.08-274.81,0c-22.49,0-36-13.35-36-35.59-.05-66.92.35-133.83-.24-200.74-.17-19.77,13.39-37.4,36.89-36.83C409.77,718.61,455.27,717.83,500.74,717.83ZM609.88,927.18V781H391.49V927.18Z"/></g></svg>