<svg id="Layer_1" data-name="Layer 1" xmlns="http://www.w3.org/2000/svg" viewBox="0 0 300 180"><defs><style>.cls-1{fill:#e92727;}.cls-2,.cls-5{fill:#fff;stroke-miterlimit:10;}.cls-2{stroke:#e8e8e8;}.cls-3{fill:#c82128;}.cls-4{fill:#e72728;}.cls-5{stroke:#e92727;stroke-width:1.5px;}.cls-6{fill:#444;}.cls-6,.cls-7{fill-rule:evenodd;}.cls-7{fill:#e32235;}</style></defs><title>Ads Layout2</title><path class="cls-1" d="M108.25,66.8h0a46.86,46.86,0,0,1,93.71,0h3a49.9,49.9,0,0,0-99.79,0h3Z"/><path class="cls-2" d="M283.34,180H16C7.37,180,.32,172.72.32,163.82V82.6C.32,73.7,7.37,66.41,16,66.41H283.34C292,66.41,299,73.7,299,82.6v81.22C299,172.72,292,180,283.34,180Z"/><path class="cls-3" d="M284,180H24.1C10.84,180,0,172.74,0,163.88V82.47C0,73,3,64,22.15,66.35Z"/><path class="cls-4" d="M299,78.86v86.26s-.76,12.11-14.41,14.88H13.07A17.4,17.4,0,0,1,0,166.3V154.78Z"/><circle class="cls-5" cx="155.11" cy="65.75" r="33.39"/><path class="cls-6" d="M155.59,50.89V80.58a1.63,1.63,0,0,1-2.5,1.4c-1-.57-18.13-13.84-19.83-14.82a1.61,1.61,0,0,1-.64-2.16,1.63,1.63,0,0,1,.64-.66c1.22-.71,18.44-14,19.88-14.84A1.62,1.62,0,0,1,155.59,50.89Z"/><path id="Shape_3_copy" data-name="Shape 3 copy" class="cls-6" d="M178,58.59V72.9a.88.88,0,0,1-.86.91.8.8,0,0,1-.49-.14c-.53-.31-9.79-6.6-10.7-7.14a.9.9,0,0,1-.34-1.21A.92.92,0,0,1,166,65c.66-.39,10-6.72,10.73-7.16a.87.87,0,0,1,1.2.31A.93.93,0,0,1,178,58.59Z"/><path id="Shape_3_copy_2" data-name="Shape 3 copy 2" class="cls-7" d="M161.47,44.31V58.63a.88.88,0,0,0,.85.91.91.91,0,0,0,.49-.14c.54-.31,9.79-6.61,10.71-7.15a.88.88,0,0,0,.33-1.2.86.86,0,0,0-.33-.35c-.66-.39-10-6.72-10.74-7.16a.86.86,0,0,0-1.19.31A.83.83,0,0,0,161.47,44.31Z"/><path id="Shape_3_copy_3" data-name="Shape 3 copy 3" class="cls-7" d="M161.47,72.86V87.18a.88.88,0,0,0,.86.91.9.9,0,0,0,.48-.14c.54-.31,9.79-6.6,10.71-7.14a.9.9,0,0,0,0-1.55c-.66-.4-10-6.72-10.74-7.16a.85.85,0,0,0-1.19.31A.78.78,0,0,0,161.47,72.86Z"/></svg>